<?xml version="1.0" encoding="utf-8"?>
<svg xmlns="http://www.w3.org/2000/svg" height="550" width="128" xmlns:bx="https://boxy-svg.com">
  <defs>
    <bx:guide x="6.19" y="-372.603" angle="0"/>
    <bx:guide x="207.215" y="3.057" angle="90"/>
    <bx:guide x="261.545" y="528.514" angle="90"/>
  </defs>
  <style>.W { fill: rgb(250, 250, 250); }</style>
  <path d="M 62.81 229.626 L 68.139 229.626 L 74.801 230.278 L 79.464 230.931 L 86.125 231.584 L 92.12 232.889 L 94.784 233.541 L 96.117 234.194 L 96.117 235.499 L 100.113 236.804 L 104.11 239.415 L 108.107 240.067 L 107.441 242.025 L 108.773 242.025 L 108.773 243.33 L 111.437 244.635 L 113.436 245.941 L 115.434 245.941 L 116.766 248.551 L 118.765 249.204 L 118.765 251.814 L 120.097 251.814 L 122.095 254.424 L 122.095 257.687 L 124.094 259.645 L 124.094 266.171 L 125.426 267.476 L 124.094 267.476 L 125.426 288.359 L 125.426 294.233 L 124.094 294.233 L 124.76 300.106 L 123.428 300.106 L 124.094 306.632 L 122.762 313.81 L 121.429 316.421 L 120.763 318.379 L 120.097 320.989 L 117.433 323.599 L 116.766 326.21 L 114.768 328.82 L 113.436 330.778 L 112.104 334.693 L 109.439 337.956 L 108.773 342.525 L 108.773 347.745 L 109.439 347.745 L 109.439 356.882 L 110.105 356.882 L 110.105 362.102 L 109.439 364.713 L 110.771 364.713 L 110.105 367.976 L 110.771 371.239 L 110.771 377.765 L 112.104 378.417 L 112.77 386.248 L 112.104 386.901 L 112.77 386.901 L 112.77 393.427 L 113.436 394.732 L 112.77 395.385 L 113.436 397.995 L 113.436 403.216 L 114.102 403.216 L 114.102 418.878 L 114.102 420.836 L 114.768 423.446 L 114.768 449.55 L 115.434 449.55 L 115.434 457.381 L 114.768 458.034 L 115.434 458.034 L 115.434 461.949 L 118.099 463.255 L 118.099 466.518 L 119.431 467.17 L 120.097 471.086 L 120.097 482.832 L 118.765 484.79 L 118.099 487.401 L 118.099 489.358 L 116.766 489.358 L 116.1 491.969 L 114.768 491.969 L 115.434 493.926 L 112.77 495.884 L 112.104 497.189 L 104.11 499.8 L 96.783 499.8 L 96.117 503.063 L 93.452 505.673 L 92.786 508.284 L 90.122 509.589 L 84.793 508.284 L 83.46 512.852 L 82.128 514.157 L 81.462 516.115 L 80.796 518.072 L 79.464 518.072 L 80.13 520.683 L 78.797 521.335 L 78.131 522.641 L 76.799 521.988 L 75.467 524.598 L 71.47 526.556 L 71.47 527.861 L 67.473 528.514 L 52.819 528.514 L 46.824 525.904 L 42.827 524.598 L 39.496 523.946 L 36.832 521.335 L 31.503 518.725 L 27.506 517.42 L 26.174 514.809 L 20.845 509.589 L 18.18 506.978 L 17.514 505.021 L 16.848 501.105 L 13.517 495.232 L 11.519 493.274 L 10.187 488.706 L 9.521 485.443 L 8.854 482.832 L 7.522 480.222 L 6.856 477.612 L 8.188 477.612 L 6.856 476.306 L 7.522 471.086 L 6.19 471.086 L 6.856 467.823 L 6.19 467.823 L 6.19 459.339 L 6.856 459.339 L 6.856 454.771 L 8.188 452.16 L 9.521 448.245 L 11.519 446.287 L 13.517 446.287 L 12.851 444.329 L 16.182 444.329 L 15.516 442.372 L 20.179 441.719 L 26.174 441.066 L 31.503 442.372 L 33.501 444.329 L 33.501 445.635 L 34.833 445.635 L 34.833 446.94 L 36.832 446.287 L 36.166 448.897 L 37.498 448.897 L 41.495 455.423 L 42.161 456.729 L 42.161 459.992 L 43.493 460.644 L 44.159 463.907 L 44.159 464.56 L 44.825 468.475 L 44.159 469.781 L 45.491 470.433 L 46.157 474.349 L 46.824 476.959 L 47.49 479.569 L 48.156 482.832 L 48.822 485.443 L 49.488 490.011 L 52.152 493.274 L 52.152 494.579 L 55.483 496.537 L 61.478 497.842 L 72.136 500.452 L 72.136 499.147 L 74.801 498.495 L 72.802 497.189 L 70.804 496.537 L 70.804 495.232 L 66.807 493.926 L 62.144 491.969 L 60.812 489.358 L 59.48 486.748 L 58.148 484.138 L 56.149 481.527 L 55.483 478.917 L 55.483 471.086 L 56.149 469.781 L 56.149 467.17 L 57.481 467.17 L 56.815 461.297 L 57.481 458.686 L 56.815 456.076 L 58.148 456.076 L 57.481 450.203 L 56.815 447.592 L 57.481 438.456 L 55.483 437.803 L 55.483 430.625 L 54.817 428.667 L 56.149 428.667 L 56.149 426.057 L 54.817 425.404 L 56.149 423.446 L 54.817 422.794 L 54.817 416.268 L 54.151 414.963 L 55.483 414.963 L 54.151 411.047 L 53.485 408.437 L 53.485 398.648 L 52.152 396.69 L 52.819 395.385 L 52.152 394.732 L 52.152 389.511 L 51.486 389.511 L 51.486 381.028 L 50.154 379.07 L 50.154 372.544 L 49.488 369.934 L 49.488 364.06 L 48.822 360.145 L 48.156 360.145 L 48.156 352.314 L 47.49 349.703 L 47.49 345.788 L 46.824 344.482 L 48.156 344.482 L 47.49 339.262 L 44.825 335.999 L 44.159 331.431 L 42.161 331.431 L 41.495 328.168 L 39.496 326.21 L 38.83 322.294 L 36.832 320.989 L 36.832 317.726 L 34.833 315.768 L 34.167 313.158 L 34.833 311.2 L 32.835 310.547 L 32.835 309.242 L 31.503 309.242 L 31.503 307.285 L 29.504 305.327 L 28.838 302.064 L 27.506 302.064 L 26.84 298.801 L 27.506 298.148 L 26.174 295.538 L 24.841 295.538 L 24.175 292.927 L 24.175 286.402 L 22.843 285.096 L 23.509 284.444 L 22.843 281.833 L 22.177 279.223 L 22.177 266.171 L 22.843 263.561 L 22.843 258.34 L 23.509 256.382 L 24.175 251.814 L 25.508 249.856 L 26.84 249.204 L 27.506 247.246 L 29.504 246.593 L 30.17 245.288 L 31.503 245.288 L 32.835 242.678 L 38.83 239.415 L 43.493 236.804 L 43.493 235.499 L 46.157 234.847 L 47.49 234.847 L 50.154 232.889 L 56.149 232.236 L 62.81 230.278 L 62.81 229.626 Z M 50.154 233.541 Z M 93.452 233.541 Z M 48.822 234.194 Z M 72.802 234.847 Z M 44.825 235.499 Z M 68.806 234.847 L 60.812 235.499 L 57.481 236.804 L 55.483 238.762 L 49.488 240.72 L 38.83 245.941 L 36.832 247.246 L 36.166 249.204 L 32.835 249.856 L 32.169 251.161 L 30.17 253.119 L 29.504 257.687 L 28.172 258.993 L 32.835 260.298 L 33.501 262.256 L 37.498 257.687 L 37.498 255.73 L 40.162 256.382 L 40.162 255.077 L 41.495 255.077 L 41.495 253.119 L 42.827 253.772 L 48.156 250.509 L 52.819 248.551 L 56.149 245.941 L 62.144 245.941 L 70.804 245.288 L 80.796 247.246 L 84.793 248.551 L 92.12 253.119 L 97.449 257.035 L 99.447 257.035 L 99.447 258.34 L 100.779 258.34 L 100.779 259.645 L 102.112 260.298 L 104.11 263.561 L 105.442 264.213 L 106.775 267.476 L 110.105 266.824 L 112.77 264.866 L 112.77 266.171 L 114.768 266.824 L 114.102 268.781 L 111.437 271.392 L 110.771 272.697 L 109.439 274.655 L 100.779 278.57 L 94.784 280.528 L 94.118 280.528 L 91.454 282.486 L 90.788 281.181 L 84.126 282.486 L 74.801 283.791 L 63.477 284.444 L 60.146 283.791 L 60.146 285.096 L 55.483 283.139 L 47.49 281.833 L 44.159 280.528 L 40.162 278.57 L 38.83 278.57 L 38.83 277.265 L 34.833 275.307 L 32.169 272.697 L 30.837 272.044 L 30.837 268.781 L 30.17 266.824 L 29.504 264.866 L 28.172 265.518 L 28.172 268.781 L 26.84 268.781 L 26.84 271.392 L 28.172 271.392 L 27.506 275.307 L 28.838 277.265 L 27.506 277.918 L 28.838 281.181 L 28.838 284.444 L 29.504 286.402 L 30.17 289.664 L 30.837 290.317 L 31.503 294.233 L 33.501 296.19 L 32.169 296.843 L 34.833 300.106 L 33.501 300.759 L 35.499 302.716 L 36.166 305.327 L 38.164 306.632 L 36.832 307.285 L 44.825 311.2 L 48.156 311.2 L 50.82 313.158 L 58.814 315.116 L 60.812 315.768 L 63.477 317.073 L 68.806 318.379 L 74.801 319.031 L 85.459 320.336 L 88.123 319.684 L 90.788 320.336 L 94.118 319.684 L 104.11 318.379 L 106.775 316.421 L 107.441 317.726 L 110.105 315.768 L 112.77 316.421 L 118.765 313.158 L 118.099 308.59 L 119.431 308.59 L 118.765 304.022 L 120.097 303.369 L 118.765 303.369 L 120.763 300.759 L 120.763 296.19 L 119.431 296.19 L 120.097 293.58 L 119.431 292.275 L 120.763 291.622 L 120.763 284.444 L 119.431 283.139 L 120.097 280.528 L 119.431 280.528 L 118.765 277.265 L 120.097 277.265 L 120.097 272.044 L 119.431 269.434 L 118.765 268.781 L 119.431 268.781 L 119.431 265.518 L 118.099 262.908 L 118.099 260.95 L 116.1 258.993 L 116.1 257.035 L 114.768 256.382 L 113.436 253.119 L 111.437 252.467 L 107.441 247.898 L 106.108 247.246 L 102.778 244.635 L 98.781 242.025 L 92.12 238.11 L 85.459 236.152 L 82.128 235.499 L 75.467 235.499 L 74.135 234.847 L 74.135 236.152 L 72.136 234.847 L 68.806 234.847 Z M 56.149 237.457 Z M 54.817 238.11 Z M 53.485 238.762 Z M 56.149 245.941 Z M 54.817 246.593 Z M 35.499 248.551 Z M 34.167 249.204 Z M 66.141 249.204 L 62.81 249.856 L 56.815 251.161 L 48.156 253.772 L 46.824 254.424 L 46.157 255.73 L 44.159 256.382 L 43.493 257.687 L 38.83 260.95 L 38.164 262.256 L 36.166 264.213 L 35.499 265.518 L 34.833 266.824 L 38.83 271.392 L 40.828 272.697 L 41.495 273.35 L 49.488 277.265 L 56.815 277.918 L 59.48 278.57 L 64.143 278.57 L 66.141 279.223 L 66.141 277.918 L 69.472 279.223 L 81.462 278.57 L 84.793 276.613 L 85.459 277.918 L 86.125 277.265 L 90.788 276.613 L 96.117 275.307 L 100.779 273.35 L 104.11 270.087 L 103.444 268.129 L 100.779 265.518 L 99.447 262.908 L 98.115 262.256 L 96.783 260.95 L 93.452 257.687 L 90.122 255.73 L 86.791 253.772 L 85.459 253.119 L 82.794 251.161 L 80.13 251.161 L 78.797 249.856 L 75.467 249.204 L 67.473 249.204 L 66.807 249.204 L 66.141 249.204 Z M 80.13 250.509 Z M 24.175 254.424 Z M 29.504 255.077 Z M 28.838 256.382 Z M 38.164 256.382 Z M 116.1 258.34 Z M 27.506 258.993 Z M 116.766 258.993 Z M 28.838 259.645 Z M 122.762 259.645 Z M 26.84 260.298 L 27.506 261.603 L 26.84 260.298 Z M 28.172 260.298 L 28.838 261.603 L 28.172 260.298 Z M 26.84 262.256 L 27.506 264.213 L 26.84 262.256 Z M 28.172 262.256 L 28.838 264.213 L 28.172 262.256 Z M 26.84 264.866 Z M 26.84 266.171 Z M 26.84 267.476 Z M 107.441 268.129 Z M 22.843 269.434 Z M 30.837 270.087 L 31.503 271.392 L 30.837 270.087 Z M 104.11 270.087 L 104.776 271.392 L 104.11 270.087 Z M 22.843 270.739 Z M 102.778 271.392 L 103.444 272.697 L 102.778 271.392 Z M 22.843 272.044 Z M 101.446 272.044 L 102.112 273.35 L 101.446 272.044 Z M 22.843 273.35 Z M 22.843 274.655 Z M 22.843 275.96 Z M 27.506 275.96 Z M 83.46 277.265 Z M 119.431 277.918 Z M 66.807 278.57 Z M 44.825 280.528 Z M 46.157 281.181 Z M 92.12 281.181 Z M 120.097 283.139 Z M 58.814 283.791 Z M 24.841 289.664 Z M 24.841 290.97 Z M 24.841 292.275 Z M 32.169 294.885 Z M 33.501 298.801 Z M 123.428 298.801 Z M 119.431 302.064 Z M 34.833 302.716 Z M 30.17 304.674 Z M 122.762 305.327 L 123.428 306.632 L 122.762 305.327 Z M 122.095 307.937 Z M 118.765 309.242 Z M 122.095 309.242 L 122.762 311.2 L 122.095 309.242 Z M 34.833 313.81 Z M 120.763 314.463 Z M 35.499 315.116 Z M 40.162 315.116 Z M 59.48 315.116 Z M 40.828 315.768 L 41.495 318.379 L 43.493 320.336 L 45.491 323.599 L 46.157 327.515 L 49.488 332.736 L 50.82 332.736 L 51.486 336.651 L 52.819 337.304 L 53.485 341.872 L 52.819 347.745 L 53.485 347.745 L 53.485 354.924 L 54.151 357.534 L 54.817 362.755 L 54.817 369.281 L 55.483 372.544 L 56.149 375.154 L 56.149 377.112 L 57.481 377.112 L 56.815 381.028 L 56.815 384.943 L 58.148 384.943 L 57.481 389.511 L 57.481 397.343 L 58.148 399.953 L 58.148 405.174 L 58.814 405.826 L 58.814 409.089 L 59.48 409.089 L 60.146 413.005 L 59.48 414.963 L 60.146 420.836 L 60.146 424.099 L 60.812 424.752 L 60.812 435.193 L 61.478 435.193 L 61.478 445.635 L 63.477 449.55 L 63.477 451.508 L 64.143 457.381 L 62.81 458.034 L 69.472 459.339 L 76.799 460.644 L 81.462 460.644 L 88.123 461.297 L 106.775 461.297 L 109.439 460.644 L 108.773 459.339 L 108.773 442.372 L 109.439 441.066 L 108.773 435.193 L 108.107 433.888 L 108.107 416.92 L 108.107 416.268 L 108.107 403.216 L 107.441 400.606 L 107.441 390.164 L 107.441 389.511 L 106.775 388.206 L 106.775 384.291 L 105.442 386.901 L 104.776 404.521 L 104.11 407.131 L 93.452 407.784 L 83.46 407.131 L 80.13 405.826 L 80.13 401.258 L 80.796 401.258 L 80.796 387.554 L 80.13 387.554 L 80.13 377.112 L 79.464 374.502 L 79.464 371.239 L 79.464 369.281 L 79.464 366.018 L 78.797 365.365 L 78.797 362.102 L 77.465 360.797 L 77.465 358.839 L 78.131 358.187 L 77.465 354.271 L 77.465 352.314 L 78.797 352.966 L 83.46 352.966 L 85.459 351.661 L 86.125 352.966 L 88.123 352.314 L 96.783 352.314 L 99.447 351.661 L 101.446 354.271 L 102.112 356.882 L 102.112 361.45 L 103.444 358.839 L 104.776 356.882 L 104.11 356.229 L 104.11 349.051 L 103.444 348.398 L 103.444 341.872 L 102.112 341.219 L 103.444 337.956 L 104.776 334.693 L 108.107 330.778 L 108.773 327.515 L 110.771 326.862 L 112.104 324.252 L 113.436 322.294 L 111.437 320.989 L 103.444 322.294 L 100.113 322.947 L 98.115 324.252 L 97.449 322.947 L 96.783 323.599 L 92.12 323.599 L 85.459 324.252 L 83.46 324.905 L 82.128 324.252 L 82.128 325.557 L 77.465 323.599 L 68.806 322.947 L 61.478 321.642 L 54.817 320.336 L 48.156 318.379 L 44.825 317.073 L 40.828 315.768 Z M 110.771 315.768 Z M 109.439 316.421 Z M 105.442 317.073 Z M 42.161 319.031 Z M 114.102 319.684 L 114.768 320.989 L 114.102 319.684 Z M 118.765 319.684 L 119.431 320.989 L 118.765 319.684 Z M 37.498 320.336 Z M 42.827 320.336 Z M 112.77 320.336 Z M 43.493 321.642 Z M 113.436 321.642 Z M 44.159 322.947 Z M 98.781 322.947 Z M 44.825 324.252 Z M 80.796 324.252 Z M 116.1 324.252 Z M 40.162 324.905 Z M 115.434 325.557 Z M 40.828 326.21 Z M 114.768 326.862 Z M 108.773 328.168 Z M 108.107 328.82 Z M 42.827 330.125 Z M 112.104 331.431 Z M 111.437 332.736 Z M 50.154 333.388 Z M 105.442 333.388 Z M 110.771 333.388 Z M 104.776 334.693 Z M 110.105 334.693 Z M 45.491 335.346 Z M 109.439 335.346 Z M 104.11 335.999 Z M 103.444 337.304 Z M 47.49 337.956 Z M 108.107 337.956 Z M 52.152 339.914 Z M 52.819 340.567 Z M 107.441 345.788 Z M 52.819 348.398 Z M 52.819 349.703 Z M 84.126 352.314 Z M 78.131 352.966 Z M 48.822 354.924 Z M 88.789 356.229 Z M 90.122 356.229 L 90.788 357.534 L 93.452 357.534 L 93.452 356.229 L 90.122 356.229 Z M 94.118 356.229 Z M 96.117 356.229 L 96.783 358.187 L 98.115 358.839 L 98.115 363.408 L 99.447 364.713 L 99.447 357.534 L 98.115 356.229 L 96.117 356.229 Z M 86.125 356.882 L 87.457 358.187 L 87.457 356.882 L 86.125 356.882 Z M 84.793 356.882 L 82.128 357.534 L 82.794 360.145 L 82.794 370.586 L 83.46 373.197 L 83.46 382.985 L 84.793 382.333 L 84.793 378.417 L 85.459 375.807 L 84.793 375.154 L 85.459 365.365 L 84.793 360.145 L 86.125 357.534 L 84.793 356.882 Z M 95.45 356.882 L 93.452 358.187 L 96.117 358.187 L 95.45 356.882 Z M 104.11 358.187 L 104.776 360.145 L 104.11 358.187 Z M 108.773 358.187 Z M 85.459 358.839 Z M 108.773 359.492 Z M 82.128 360.145 Z M 84.793 360.145 Z M 103.444 360.145 L 102.778 366.018 L 104.11 365.365 L 104.11 360.145 L 103.444 360.145 Z M 88.789 360.797 Z M 90.122 360.797 Z M 108.773 360.797 Z M 84.793 361.45 Z M 89.455 361.45 L 88.789 362.102 L 88.789 366.671 L 89.455 367.323 L 89.455 372.544 L 88.789 375.154 L 89.455 377.112 L 89.455 377.765 L 89.455 382.333 L 90.788 382.985 L 90.122 384.291 L 93.452 384.943 L 94.118 382.985 L 95.45 382.985 L 95.45 366.018 L 94.784 362.102 L 89.455 361.45 Z M 102.112 362.102 Z M 98.781 365.365 Z M 104.776 365.365 L 104.11 366.671 L 105.442 368.628 L 105.442 365.365 L 104.776 365.365 Z M 98.781 366.671 L 98.781 371.239 L 100.113 368.628 L 100.113 366.671 L 98.781 366.671 Z M 103.444 366.671 Z M 88.789 367.976 L 89.455 369.281 L 88.789 367.976 Z M 103.444 367.976 L 104.11 369.934 L 104.11 367.976 L 103.444 367.976 Z M 104.776 369.281 Z M 88.789 369.934 Z M 50.154 370.586 Z M 103.444 370.586 Z M 104.776 370.586 Z M 82.794 371.239 Z M 85.459 371.239 Z M 100.113 371.891 Z M 103.444 371.891 Z M 104.776 371.891 Z M 85.459 372.544 Z M 100.113 373.197 L 100.779 375.807 L 100.113 373.197 Z M 103.444 373.197 Z M 104.776 373.197 Z M 85.459 373.849 L 86.125 375.154 L 85.459 373.849 Z M 103.444 374.502 Z M 104.776 374.502 Z M 79.464 375.807 Z M 103.444 375.807 Z M 105.442 375.807 L 106.108 377.112 L 105.442 375.807 Z M 50.82 376.46 L 51.486 378.417 L 50.82 376.46 Z M 99.447 376.46 L 99.447 381.028 L 100.779 380.375 L 100.779 376.46 L 99.447 376.46 Z M 103.444 377.112 Z M 105.442 377.765 Z M 85.459 378.417 Z M 104.776 378.417 Z M 105.442 379.07 Z M 85.459 379.723 Z M 104.776 379.723 Z M 105.442 380.375 L 106.108 382.333 L 105.442 380.375 Z M 85.459 381.028 Z M 104.11 381.028 L 104.776 382.333 L 104.11 381.028 Z M 100.113 381.68 Z M 98.781 382.333 L 98.781 391.469 L 99.447 391.469 L 100.113 383.638 L 98.781 382.333 Z M 110.771 382.333 Z M 89.455 382.985 Z M 100.113 382.985 Z M 104.11 382.985 Z M 105.442 382.985 Z M 83.46 383.638 Z M 94.784 383.638 L 94.118 384.943 L 95.45 384.943 L 94.784 383.638 Z M 110.771 383.638 Z M 100.779 384.291 Z M 104.11 384.291 Z M 84.126 384.943 Z M 52.152 385.596 Z M 100.779 385.596 L 100.113 387.554 L 100.113 393.427 L 99.447 396.037 L 100.113 396.037 L 100.113 399.3 L 98.115 399.953 L 98.781 401.911 L 95.45 401.258 L 88.123 401.258 L 86.125 400.606 L 84.793 401.911 L 85.459 403.216 L 92.12 403.868 L 99.447 403.868 L 101.446 403.216 L 101.446 385.596 L 100.779 385.596 Z M 104.11 385.596 Z M 80.13 386.248 Z M 84.126 386.248 L 84.126 394.08 L 84.793 394.08 L 85.459 386.248 L 84.126 386.248 Z M 52.152 386.901 Z M 56.815 386.901 Z M 56.815 388.206 Z M 111.437 388.206 Z M 104.11 390.817 Z M 111.437 390.817 Z M 98.781 392.122 Z M 98.781 393.427 Z M 104.11 393.427 Z M 84.793 394.08 Z M 92.786 394.08 Z M 104.11 394.732 Z M 84.126 395.385 L 84.126 397.995 L 85.459 397.995 L 85.459 395.385 L 84.126 395.385 Z M 104.11 396.037 L 104.11 403.868 L 104.776 403.868 L 104.776 396.037 L 104.11 396.037 Z M 84.793 398.648 Z M 85.459 399.953 Z M 54.151 402.563 Z M 80.13 403.868 Z M 100.779 403.868 Z M 112.77 405.826 Z M 112.77 407.131 Z M 112.77 408.437 Z M 58.814 409.742 Z M 112.77 409.742 Z M 112.77 411.047 Z M 59.48 418.226 Z M 113.436 427.362 Z M 113.436 428.667 Z M 113.436 429.972 Z M 113.436 431.277 Z M 56.149 431.93 Z M 113.436 432.583 Z M 56.149 433.235 Z M 56.149 434.54 L 56.815 436.498 L 56.149 434.54 Z M 111.437 434.54 L 111.437 437.803 L 112.104 437.803 L 112.104 434.54 L 111.437 434.54 Z M 60.812 435.846 Z M 60.812 437.151 Z M 60.812 438.456 Z M 29.504 442.372 Z M 30.837 443.024 Z M 22.843 445.635 Z M 18.18 446.287 L 13.517 448.897 L 13.517 450.203 L 12.185 450.855 L 11.519 454.118 L 10.853 456.076 L 11.519 458.034 L 10.187 458.034 L 10.187 466.518 L 10.853 467.17 L 11.519 473.696 L 12.185 473.696 L 12.851 467.823 L 12.185 465.212 L 13.517 464.56 L 14.85 459.992 L 16.848 456.729 L 20.179 453.466 L 23.509 451.508 L 24.175 451.508 L 29.504 452.16 L 30.837 454.771 L 31.503 455.423 L 34.167 460.644 L 36.166 459.992 L 36.832 456.076 L 33.501 452.16 L 32.169 449.55 L 27.506 446.94 L 22.177 446.287 L 18.18 446.287 Z M 10.187 448.245 Z M 9.521 449.55 Z M 108.773 450.203 Z M 8.854 450.855 Z M 62.81 452.16 L 63.477 454.118 L 62.81 452.16 Z M 114.102 452.16 Z M 11.519 452.813 Z M 114.102 453.466 Z M 108.773 454.118 Z M 22.177 454.771 L 18.846 458.034 L 17.514 460.644 L 17.514 463.907 L 16.848 463.907 L 16.848 473.043 L 17.514 475.654 L 18.18 478.264 L 18.846 480.875 L 19.512 484.79 L 21.511 486.095 L 21.511 490.664 L 24.175 493.274 L 24.841 497.189 L 26.84 499.147 L 28.838 501.758 L 29.504 501.758 L 29.504 503.063 L 30.837 503.063 L 30.837 504.368 L 36.832 508.936 L 42.161 512.199 L 46.157 514.157 L 48.822 514.157 L 50.154 515.462 L 54.817 517.42 L 61.478 517.42 L 62.144 517.42 L 65.475 516.767 L 67.473 514.809 L 70.138 514.157 L 73.468 510.894 L 72.136 510.241 L 66.807 510.894 L 64.143 511.547 L 57.481 509.589 L 54.817 508.284 L 51.486 508.284 L 51.486 506.978 L 49.488 506.326 L 44.825 501.105 L 43.493 499.147 L 41.495 498.495 L 41.495 495.232 L 39.496 494.579 L 38.164 491.316 L 37.498 489.358 L 38.83 488.706 L 37.498 487.401 L 36.832 484.138 L 35.499 481.527 L 34.167 478.917 L 34.167 475.001 L 32.835 475.001 L 32.835 470.433 L 31.503 468.475 L 31.503 465.865 L 30.17 465.212 L 31.503 462.602 L 29.504 459.339 L 29.504 457.381 L 28.172 457.381 L 26.84 454.771 L 22.177 454.771 Z M 62.81 454.771 Z M 62.81 456.076 Z M 36.166 459.992 L 35.499 462.602 L 36.832 464.56 L 38.164 467.823 L 36.832 468.475 L 38.164 469.781 L 40.162 469.781 L 40.162 466.518 L 39.496 464.56 L 38.83 462.602 L 36.166 459.992 Z M 37.498 459.992 L 38.164 461.297 L 37.498 459.992 Z M 38.164 461.297 Z M 64.143 463.255 L 63.477 466.518 L 62.81 467.823 L 63.477 469.128 L 62.144 469.128 L 62.144 479.569 L 63.477 481.527 L 66.141 487.401 L 67.473 489.358 L 69.472 491.316 L 77.465 493.274 L 84.126 494.579 L 89.455 494.579 L 91.454 494.579 L 100.779 494.579 L 106.108 493.926 L 105.442 490.664 L 102.778 488.706 L 102.112 486.748 L 102.778 486.095 L 100.779 485.443 L 101.446 478.917 L 101.446 475.654 L 102.778 475.001 L 102.778 473.696 L 104.776 473.043 L 106.775 471.738 L 108.773 475.654 L 108.773 477.612 L 108.773 483.485 L 108.107 483.485 L 108.107 488.706 L 108.773 490.664 L 110.771 491.316 L 111.437 488.706 L 112.77 484.79 L 113.436 480.222 L 113.436 473.043 L 111.437 471.738 L 110.771 469.781 L 112.104 469.128 L 110.105 465.865 L 107.441 466.518 L 106.775 465.212 L 104.776 465.865 L 88.123 465.865 L 77.465 464.56 L 72.802 464.56 L 67.473 463.255 L 64.143 463.255 Z M 30.837 463.907 Z M 63.477 463.907 Z M 39.496 465.212 Z M 108.107 465.212 Z M 12.851 465.865 Z M 36.832 465.865 L 37.498 467.17 L 36.832 465.865 Z M 10.187 467.17 L 10.853 469.128 L 10.187 467.17 Z M 62.144 467.823 Z M 32.169 468.475 L 32.835 469.781 L 32.169 468.475 Z M 10.187 469.781 Z M 12.851 470.433 Z M 38.83 469.781 L 37.498 471.086 L 40.162 474.349 L 39.496 469.781 L 38.83 469.781 Z M 40.162 470.433 Z M 111.437 470.433 Z M 10.187 471.086 Z M 12.851 471.738 Z M 10.187 472.391 Z M 40.828 472.391 Z M 61.478 472.391 Z M 32.835 473.043 L 33.501 474.349 L 32.835 473.043 Z M 38.164 473.043 Z M 56.149 473.043 Z M 12.851 473.043 L 12.185 474.349 L 10.853 473.696 L 11.519 478.917 L 13.517 476.959 L 13.517 473.043 L 12.851 473.043 Z M 16.848 474.349 Z M 38.83 474.349 Z M 56.149 474.349 Z M 39.496 475.001 L 40.162 476.959 L 39.496 475.001 Z M 40.828 475.001 Z M 101.446 475.654 L 102.112 476.959 L 101.446 475.654 Z M 40.828 476.306 L 40.162 478.917 L 41.495 478.264 L 40.828 476.306 Z M 13.517 477.612 Z M 46.157 478.264 Z M 108.107 478.264 Z M 12.851 478.917 Z M 34.167 478.917 Z M 13.517 479.569 L 13.517 482.18 L 14.85 482.18 L 14.85 479.569 L 13.517 479.569 Z M 40.828 479.569 L 41.495 480.875 L 40.828 479.569 Z M 56.149 479.569 Z M 108.107 479.569 Z M 12.185 480.222 L 12.851 482.18 L 12.185 480.222 Z M 34.833 480.222 Z M 41.495 480.875 L 42.161 483.485 L 41.495 480.875 Z M 108.107 480.875 Z M 57.481 481.527 L 58.148 482.832 L 57.481 481.527 Z M 12.851 482.18 Z M 14.85 482.18 L 12.851 484.138 L 14.85 484.79 L 15.516 482.18 L 14.85 482.18 Z M 63.477 482.18 Z M 108.107 482.18 Z M 64.143 483.485 L 64.809 485.443 L 64.143 483.485 Z M 101.446 483.485 L 102.112 484.79 L 101.446 483.485 Z M 42.161 484.138 L 42.161 486.095 L 43.493 485.443 L 42.161 484.138 Z M 58.814 484.138 Z M 13.517 484.79 L 14.183 488.706 L 16.182 488.706 L 16.848 486.748 L 15.516 484.79 L 13.517 484.79 Z M 10.187 486.095 Z M 20.845 486.095 Z M 64.809 486.095 Z M 42.827 486.748 Z M 65.475 487.401 Z M 42.827 488.053 L 43.493 490.011 L 44.825 489.358 L 44.159 488.053 L 42.827 488.053 Z M 16.848 488.706 L 15.516 490.011 L 16.182 492.621 L 18.18 490.664 L 17.514 488.706 L 16.848 488.706 Z M 61.478 489.358 Z M 38.164 490.011 Z M 107.441 490.011 Z M 11.519 490.664 Z M 44.159 490.664 L 44.825 492.621 L 45.491 490.664 L 44.159 490.664 Z M 108.107 490.664 Z M 18.18 491.316 L 16.848 495.232 L 18.18 496.537 L 19.512 501.105 L 21.511 504.368 L 23.509 505.021 L 24.175 507.631 L 25.508 508.936 L 26.84 510.241 L 29.504 513.504 L 33.501 515.462 L 42.161 520.03 L 46.157 520.03 L 48.156 521.988 L 54.817 523.293 L 60.146 523.293 L 63.477 523.946 L 72.136 521.988 L 72.802 520.03 L 75.467 518.725 L 76.799 516.115 L 75.467 514.809 L 71.47 516.115 L 69.472 519.378 L 60.146 520.03 L 58.148 520.03 L 58.148 521.335 L 53.485 519.378 L 44.159 516.115 L 34.833 510.894 L 32.835 510.241 L 30.17 507.631 L 29.504 506.326 L 28.172 506.326 L 28.172 505.021 L 24.841 501.758 L 22.177 499.147 L 21.511 497.189 L 20.845 494.579 L 19.512 494.579 L 18.846 491.316 L 18.18 491.316 Z M 22.177 491.316 Z M 38.83 491.316 Z M 108.773 491.316 Z M 12.185 491.969 Z M 45.491 491.969 L 45.491 493.274 L 44.159 493.926 L 45.491 495.232 L 46.824 493.274 L 45.491 491.969 Z M 22.177 492.621 Z M 39.496 492.621 Z M 107.441 491.969 L 106.108 493.274 L 108.107 493.274 L 107.441 491.969 Z M 12.851 493.274 Z M 113.436 493.274 Z M 23.509 493.926 Z M 46.824 493.926 L 46.157 498.495 L 47.49 499.147 L 49.488 499.147 L 50.154 497.189 L 48.822 495.232 L 47.49 495.232 L 46.824 493.926 Z M 45.491 495.884 Z M 71.47 495.884 Z M 74.135 496.537 Z M 75.467 497.189 Z M 41.495 497.842 Z M 80.796 497.842 L 80.796 499.8 L 82.128 499.8 L 82.128 502.41 L 85.459 503.063 L 86.125 504.368 L 86.125 503.063 L 88.789 503.715 L 91.454 501.105 L 92.786 501.105 L 92.786 499.147 L 86.791 498.495 L 80.796 497.842 Z M 50.154 498.495 L 48.822 501.105 L 52.819 505.021 L 56.149 505.673 L 58.814 506.978 L 64.143 508.284 L 68.139 508.284 L 71.47 507.631 L 76.133 506.978 L 78.797 505.021 L 78.131 503.063 L 73.468 503.063 L 66.807 503.715 L 57.481 501.758 L 52.819 500.452 L 51.486 499.147 L 50.154 498.495 Z M 76.133 498.495 L 75.467 499.8 L 76.799 499.8 L 76.133 498.495 Z M 72.802 499.8 Z M 95.45 501.105 Z M 86.791 503.715 Z M 22.843 505.021 Z M 54.817 505.021 Z M 91.454 506.978 Z M 68.806 507.631 Z M 80.13 507.631 L 80.796 508.936 L 80.13 507.631 Z M 90.122 508.284 Z M 78.797 508.936 L 80.13 510.894 L 80.13 508.936 L 78.797 508.936 Z M 73.468 510.241 Z M 78.131 510.241 Z M 78.797 510.894 Z M 82.794 510.894 Z M 77.465 511.547 L 77.465 512.852 L 78.797 512.199 L 77.465 511.547 Z M 76.133 513.504 Z M 77.465 513.504 L 78.131 514.809 L 77.465 513.504 Z M 48.156 514.157 Z M 74.801 514.157 Z M 67.473 514.809 Z M 73.468 514.809 Z M 66.141 515.462 Z M 76.799 515.462 Z M 28.838 516.767 Z M 69.472 517.42 L 70.138 518.725 L 69.472 517.42 Z M 68.139 518.725 Z M 45.491 520.03 Z M 56.815 520.03 Z M 52.819 527.209 Z M 69.472 527.209 Z M 107.441 287.707 L 110.105 288.359 L 110.105 290.97 L 111.437 290.97 L 110.771 294.233 L 104.776 296.843 L 99.447 297.496 L 96.783 297.496 L 92.12 298.148 L 80.796 298.801 L 70.804 298.148 L 67.473 298.801 L 62.81 298.148 L 56.149 297.496 L 52.819 296.843 L 47.49 294.885 L 45.491 294.885 L 46.157 292.275 L 43.493 292.927 L 43.493 291.622 L 42.161 290.97 L 42.161 289.012 L 44.825 288.359 L 50.154 291.622 L 54.151 292.927 L 59.48 292.927 L 64.143 294.233 L 70.138 294.885 L 72.802 294.233 L 77.465 294.885 L 82.794 294.885 L 86.791 293.58 L 89.455 292.927 L 94.118 292.275 L 104.776 290.317 L 104.776 289.012 L 107.441 287.707 Z M 107.441 288.359 Z M 106.108 289.012 Z M 108.773 290.97 Z M 106.775 291.622 Z M 90.788 292.927 Z M 58.814 293.58 Z M 92.786 294.885 Z M 98.115 296.843 Z M 72.136 367.323 L 74.135 367.323 L 74.135 378.417 L 75.467 381.028 L 75.467 399.953 L 76.133 399.953 L 76.133 408.437 L 75.467 410.394 L 76.799 410.394 L 76.133 415.615 L 76.799 416.268 L 76.799 441.719 L 73.468 441.719 L 72.802 439.109 L 72.802 427.362 L 73.468 427.362 L 73.468 421.489 L 72.802 418.878 L 72.802 409.089 L 72.136 406.479 L 72.136 399.953 L 71.47 399.3 L 70.804 386.901 L 70.804 386.248 L 70.804 384.291 L 70.804 375.154 L 70.804 373.197 L 70.138 372.544 L 70.138 369.281 L 72.136 367.323 Z M 72.802 368.628 Z M 72.802 369.934 Z M 71.47 379.723 Z M 71.47 381.028 Z M 71.47 382.333 L 72.136 383.638 L 71.47 382.333 Z M 74.135 386.901 L 74.801 388.206 L 74.135 386.901 Z M 72.136 390.817 Z M 72.136 392.122 Z M 72.136 393.427 Z M 72.136 394.732 Z M 72.136 396.037 L 72.136 399.3 L 72.802 399.3 L 72.802 396.037 L 72.136 396.037 Z M 72.802 407.131 Z M 75.467 411.047 Z M 75.467 416.268 Z M 75.467 417.573 Z M 75.467 418.878 Z M 75.467 420.183 L 76.133 422.141 L 75.467 420.183 Z M 75.467 425.404 Z M 75.467 426.709 L 76.133 429.32 L 75.467 426.709 Z M 75.467 433.235 L 76.133 434.54 L 75.467 433.235 Z M 73.468 437.151 Z M 62.81 371.891 L 66.807 371.891 L 65.475 372.544 L 66.807 374.502 L 66.807 381.028 L 67.473 382.333 L 66.141 382.333 L 67.473 384.291 L 67.473 401.911 L 68.139 401.911 L 68.139 422.141 L 67.473 424.752 L 67.473 426.057 L 64.143 424.752 L 64.143 422.141 L 65.475 422.141 L 64.143 417.573 L 64.143 388.859 L 63.477 386.248 L 63.477 382.985 L 62.81 382.985 L 62.81 371.891 Z M 64.809 412.352 L 65.475 413.657 L 64.809 412.352 Z M 64.809 414.31 Z M 96.117 414.31 L 99.447 414.31 L 100.113 415.615 L 99.447 416.268 L 100.113 416.268 L 100.113 420.836 L 99.447 421.489 L 100.113 423.446 L 100.113 448.245 L 98.781 448.897 L 95.45 448.897 L 95.45 445.635 L 96.117 444.982 L 96.117 437.803 L 95.45 433.235 L 95.45 431.277 L 96.783 430.625 L 96.117 422.141 L 95.45 422.141 L 95.45 416.268 L 96.117 414.31 Z M 98.781 419.531 Z M 98.781 424.752 L 98.781 438.456 L 99.447 438.456 L 99.447 424.752 L 98.781 424.752 Z M 98.781 440.414 Z M 96.783 441.719 Z M 96.783 443.024 Z M 96.783 444.329 Z M 92.12 471.086 L 96.117 471.086 L 96.783 473.043 L 97.449 478.917 L 96.783 480.222 L 97.449 483.485 L 98.115 483.485 L 98.115 488.053 L 96.783 490.011 L 92.12 490.664 L 91.454 488.706 L 91.454 482.18 L 90.788 482.18 L 90.788 477.612 L 90.788 476.959 L 91.454 472.391 L 92.12 471.086 Z M 95.45 474.349 Z M 91.454 475.001 Z M 96.117 476.959 L 96.783 478.264 L 96.117 476.959 Z M 91.454 478.917 Z M 92.12 489.358 Z M 68.806 467.823 L 73.468 468.475 L 74.135 471.086 L 75.467 473.696 L 76.799 478.264 L 76.133 486.095 L 74.801 487.401 L 72.136 486.748 L 71.47 484.138 L 70.138 483.485 L 70.804 480.875 L 69.472 480.875 L 68.806 477.612 L 69.472 476.959 L 68.806 474.349 L 68.806 467.823 Z M 74.801 476.306 L 75.467 478.264 L 74.801 476.306 Z M 75.467 478.917 Z M 81.462 471.086 L 84.126 471.086 L 84.126 472.391 L 85.459 472.391 L 87.457 475.001 L 86.791 475.654 L 87.457 478.917 L 88.123 481.527 L 87.457 487.401 L 86.125 488.706 L 83.46 488.053 L 81.462 485.443 L 82.128 484.79 L 81.462 482.18 L 80.796 477.612 L 80.796 473.043 L 81.462 471.086 Z M 81.462 478.917 L 82.128 480.875 L 81.462 478.917 Z M 86.791 483.485 L 87.457 485.443 L 86.791 483.485 Z M 88.123 419.531 L 90.788 420.183 L 90.788 430.625 L 88.123 431.93 L 86.125 431.277 L 86.125 422.141 L 88.123 419.531 Z M 89.455 425.404 Z M 73.468 303.369 L 79.464 304.022 L 86.791 304.022 L 86.791 306.632 L 80.796 307.285 L 78.131 307.937 L 73.468 305.979 L 73.468 303.369 Z M 74.135 304.022 Z M 56.149 439.109 L 56.815 439.109 L 56.815 444.329 L 56.149 444.329 L 56.149 439.109 Z" class="W" style=""/>
</svg>